Hanif_Medium_7_5_grf.mot
version=1
nRows=48
nColumns=19
inDegrees=yes
endheader
time	right_ground_force_vx	right_ground_force_vy	right_ground_force_vz	right_ground_force_px	right_ground_force_py	right_ground_force_pz	right_ground_torque_x	right_ground_torque_y	right_ground_torque_z	left_ground_force_vx	left_ground_force_vy	left_ground_force_vz	left_ground_force_px	left_ground_force_py	left_ground_force_pz	left_ground_torque_x	left_ground_torque_y	left_ground_torque_z
2.175000	-4.462870	343.315000	59.139900	0.200665	0.000000	-1.436820	-23.797200	3.354820	0.865995	-3.134140	304.249000	-60.214600	0.222262	0.000000	-0.975050	21.996300	-5.733950	8.218050
2.180000	-4.702650	338.922000	58.781900	0.200872	0.000000	-1.436420	-23.633100	3.331440	0.938936	-3.722940	299.523000	-59.108500	0.222958	0.000000	-0.974316	21.451200	-5.652240	8.312110
2.185000	-4.246890	336.006000	59.333600	0.202208	0.000000	-1.435370	-23.777100	3.246420	1.391130	-3.877740	293.276000	-58.011900	0.222590	0.000000	-0.975855	21.460600	-5.517910	8.031550
2.190000	-4.115010	333.767000	59.870700	0.203044	0.000000	-1.435110	-23.704300	3.192950	1.673610	-5.176450	287.823000	-56.782200	0.223404	0.000000	-0.976269	21.216100	-5.390230	8.136600
2.195000	-4.430090	327.494000	60.145700	0.203127	0.000000	-1.433420	-23.818100	3.147580	1.695750	-5.221460	283.067000	-55.509900	0.224304	0.000000	-0.976425	20.913000	-5.245830	8.248180
2.200000	-4.226470	325.265000	60.229800	0.204813	0.000000	-1.433830	-23.518800	2.927930	2.217930	-5.823410	275.797000	-54.574300	0.224949	0.000000	-0.977086	20.580300	-5.198800	8.264350
2.205000	-4.192440	319.694000	60.492200	0.204872	0.000000	-1.432850	-23.430600	2.887580	2.217570	-5.821080	272.096000	-53.675300	0.224715	0.000000	-0.975769	19.945800	-5.060220	8.068380
2.210000	-4.793380	317.515000	60.778100	0.205820	0.000000	-1.433120	-23.192300	2.777950	2.514220	-6.322440	265.173000	-53.021500	0.225512	0.000000	-0.976386	19.621700	-4.964670	8.121140
2.215000	-4.222370	314.172000	61.307500	0.207220	0.000000	-1.432240	-23.218500	2.658140	2.934040	-6.589820	260.786000	-52.649300	0.225225	0.000000	-0.976404	19.309900	-4.808780	7.915070
2.220000	-5.029010	313.426000	61.236800	0.208750	0.000000	-1.432430	-23.113600	2.575730	3.422710	-7.001580	254.207000	-52.256000	0.226894	0.000000	-0.977023	19.001100	-4.754290	8.209320
2.225000	-4.576660	310.818000	61.307400	0.209404	0.000000	-1.431300	-23.268300	2.509730	3.599170	-6.740590	249.773000	-52.446900	0.226248	0.000000	-0.978206	18.958100	-4.545980	7.906090
2.230000	-5.364090	306.394000	61.050000	0.210442	0.000000	-1.430600	-23.162200	2.381880	3.881560	-7.273770	245.004000	-52.514800	0.227256	0.000000	-0.977960	18.559200	-4.551730	8.077060
2.235000	-5.242450	306.048000	61.952500	0.211045	0.000000	-1.431380	-22.893900	2.243620	4.052170	-7.263740	243.544000	-51.884700	0.227478	0.000000	-0.977308	18.285600	-4.349280	8.037280
2.240000	-5.618940	301.676000	61.050300	0.211766	0.000000	-1.429890	-23.023300	2.216350	4.229850	-7.357760	238.781000	-52.239700	0.227281	0.000000	-0.978222	18.153300	-4.245280	7.875940
2.245000	-5.325920	300.211000	61.315700	0.212649	0.000000	-1.430980	-22.580900	2.186360	4.483850	-7.715930	236.589000	-51.955200	0.227449	0.000000	-0.978215	17.992200	-4.042120	7.822430
2.250000	-5.465940	296.136000	61.947700	0.214157	0.000000	-1.429840	-22.612700	1.966550	4.874210	-7.987720	234.730000	-52.296900	0.228454	0.000000	-0.978212	17.857700	-3.877960	8.008480
2.255000	-5.614740	296.551000	62.865700	0.214135	0.000000	-1.431030	-22.292600	1.892180	4.870420	-8.873720	231.104000	-51.639400	0.228502	0.000000	-0.977650	17.483400	-3.894000	7.934010
2.260000	-5.705000	293.518000	62.398300	0.214931	0.000000	-1.428260	-22.880100	1.829540	5.063910	-9.424660	230.333000	-52.253800	0.228696	0.000000	-0.979251	17.805000	-3.689860	7.949840
2.265000	-5.584210	293.206000	63.221900	0.215782	0.000000	-1.429780	-22.408800	1.745210	5.310680	-9.591110	228.544000	-51.782500	0.230294	0.000000	-0.978003	17.389300	-3.613910	8.260670
2.270000	-5.549910	289.894000	63.943000	0.218061	0.000000	-1.429500	-22.238300	1.667020	5.952000	-10.059400	228.167000	-52.220100	0.230538	0.000000	-0.977518	17.255500	-3.393570	8.280890
2.275000	-5.270670	289.125000	64.016000	0.217874	0.000000	-1.428220	-22.546700	1.671270	5.881950	-10.393100	226.715000	-52.258700	0.231774	0.000000	-0.978361	17.350900	-3.348660	8.538790
2.280000	-4.189890	289.059000	64.084000	0.218216	0.000000	-1.427800	-22.650500	1.667410	5.966560	-11.111200	225.240000	-52.322900	0.232084	0.000000	-0.979241	17.453100	-3.159920	8.547520
2.285000	-4.593220	285.026000	64.538800	0.219435	0.000000	-1.427530	-22.417800	1.603130	6.268150	-11.663200	227.800000	-52.394500	0.232508	0.000000	-0.977934	17.355200	-2.992470	8.686270
2.290000	-4.155590	287.217000	64.620900	0.219631	0.000000	-1.427570	-22.574600	1.653800	6.369090	-11.371400	225.263000	-52.304700	0.233933	0.000000	-0.979451	17.502000	-2.911010	8.933680
2.295000	-3.891630	285.691000	64.148600	0.221174	0.000000	-1.425970	-22.909100	1.584960	6.780130	-11.645400	224.172000	-52.202200	0.234262	0.000000	-0.978447	17.199400	-2.843510	8.963810
2.300000	-4.157070	285.344000	64.250200	0.221101	0.000000	-1.426570	-22.710900	1.460870	6.729730	-11.833900	224.529000	-52.821500	0.235045	0.000000	-0.979095	17.373300	-2.708680	9.153240
2.305000	-4.501950	282.391000	64.168000	0.221854	0.000000	-1.426480	-22.504900	1.331490	6.874030	-12.365600	222.682000	-52.802100	0.235082	0.000000	-0.980787	17.620700	-2.568800	9.088590
2.310000	-4.313060	282.765000	64.613400	0.221815	0.000000	-1.425980	-22.675900	1.366830	6.881920	-12.707600	222.719000	-51.887700	0.235546	0.000000	-0.979472	17.335200	-2.502610	9.155990
2.315000	-4.560240	278.688000	64.523200	0.222607	0.000000	-1.425920	-22.367100	1.150240	6.988980	-12.995200	222.336000	-52.242100	0.235230	0.000000	-0.978979	17.199300	-2.415310	9.064970
2.320000	-4.911960	276.503000	64.261600	0.224228	0.000000	-1.427170	-21.852500	1.143830	7.416740	-12.720700	219.398000	-52.517600	0.236174	0.000000	-0.979603	17.111300	-2.382930	9.194830
2.325000	-5.253670	272.784000	64.171600	0.223748	0.000000	-1.426120	-21.849300	1.112510	7.197090	-12.264500	220.851000	-52.626800	0.235430	0.000000	-0.981460	17.614100	-2.326900	9.052740
2.330000	-5.769020	268.330000	64.090800	0.223869	0.000000	-1.425400	-21.692000	1.046190	7.131120	-12.182400	217.206000	-52.538700	0.236069	0.000000	-0.979096	16.812600	-2.243150	9.059650
2.335000	-6.018050	265.754000	64.277300	0.224208	0.000000	-1.425740	-21.397800	0.959257	7.158450	-11.631700	217.180000	-52.556500	0.236110	0.000000	-0.980350	17.064000	-2.155690	9.041000
2.340000	-6.756990	263.929000	63.295900	0.224226	0.000000	-1.426140	-21.152200	0.819078	7.087670	-11.636600	216.096000	-52.819800	0.237165	0.000000	-0.979627	16.825100	-2.089840	9.239830
2.345000	-5.915440	262.792000	63.999200	0.225156	0.000000	-1.426210	-21.032600	0.837022	7.321770	-11.376500	216.067000	-52.930700	0.235760	0.000000	-0.979732	16.830100	-1.999600	8.893870
2.350000	-6.173700	259.448000	63.554400	0.226201	0.000000	-1.426250	-20.760400	0.751640	7.510310	-11.571200	214.593000	-53.374400	0.235826	0.000000	-0.979642	16.698100	-1.861350	8.847180
2.355000	-6.520990	258.734000	63.920800	0.225327	0.000000	-1.426360	-20.676500	0.698276	7.253710	-12.037500	214.945000	-53.636800	0.235144	0.000000	-0.979282	16.655700	-1.825290	8.709060
2.360000	-6.237330	256.114000	63.906000	0.225336	0.000000	-1.425750	-20.622000	0.665448	7.183750	-11.608300	217.136000	-54.370700	0.235435	0.000000	-0.978727	16.689000	-1.793370	8.845870
2.365000	-6.617890	257.960000	63.469300	0.225952	0.000000	-1.426220	-20.655300	0.733513	7.410300	-11.081200	219.707000	-54.662900	0.235142	0.000000	-0.977721	16.649300	-1.863340	8.868370
2.370000	-6.500440	255.008000	63.825700	0.225726	0.000000	-1.425420	-20.619700	0.594890	7.251230	-11.696700	221.158000	-54.468900	0.234604	0.000000	-0.979644	17.188700	-1.723900	8.762560
2.375000	-6.303620	253.918000	64.185200	0.226672	0.000000	-1.425990	-20.383300	0.506346	7.460830	-11.727900	224.454000	-55.185500	0.234727	0.000000	-0.977306	16.917900	-1.796760	8.921840
2.380000	-7.103130	255.067000	64.569400	0.225383	0.000000	-1.426940	-20.245100	0.611927	7.186240	-10.478900	226.272000	-55.596200	0.234240	0.000000	-0.978268	17.232400	-1.657830	8.816410
2.385000	-6.840940	254.293000	64.285200	0.226705	0.000000	-1.425530	-20.535300	0.452255	7.478460	-9.967300	225.862000	-56.518700	0.234319	0.000000	-0.977300	16.973100	-1.659650	8.837410
2.390000	-6.928320	253.941000	64.293000	0.226023	0.000000	-1.426400	-20.285100	0.399146	7.272660	-9.785420	226.592000	-56.533900	0.233424	0.000000	-0.977298	17.021300	-1.691480	8.648440
2.395000	-7.209170	253.938000	64.030100	0.225538	0.000000	-1.426270	-20.321800	0.398720	7.142900	-8.995390	225.472000	-57.371500	0.233107	0.000000	-0.977912	17.055700	-1.569840	8.519030
2.400000	-7.272760	249.492000	63.840700	0.225783	0.000000	-1.426500	-19.910500	0.368218	7.096110	-9.017380	227.298000	-57.415000	0.232336	0.000000	-0.977141	17.011900	-1.502270	8.367230
2.405000	-7.197780	247.970000	62.927100	0.225980	0.000000	-1.427150	-19.621400	0.207516	7.053890	-8.758400	225.817000	-57.521700	0.231112	0.000000	-0.976795	16.815400	-1.465920	8.019430
2.410000	-7.747060	243.901000	61.851700	0.226033	0.000000	-1.426910	-19.365500	0.139681	6.948620	-8.745940	223.621000	-56.718500	0.230466	0.000000	-0.976040	16.483200	-1.462990	7.784260
